<svg xmlns="http://www.w3.org/2000/svg" xmlns:xlink="http://www.w3.org/1999/xlink" width="500" zoomAndPan="magnify" viewBox="0 0 375 374.999991" height="500" preserveAspectRatio="xMidYMid meet" version="1.0"><defs><g/><clipPath id="96ab53e878"><path d="M 305.179688 203.507812 L 336.882812 203.507812 L 336.882812 235 L 305.179688 235 Z M 305.179688 203.507812 " clip-rule="nonzero"/></clipPath></defs><g fill="#004aad" fill-opacity="1"><g transform="translate(15.875359, 223.893132)"><g><path d="M 61.8125 -9.859375 C 61.8125 -7.367188 62.679688 -5.101562 64.421875 -3.0625 C 66.160156 -1.019531 68.273438 0 70.765625 0 L 26.421875 0 C 29.015625 0 31.15625 -1.019531 32.84375 -3.0625 C 34.539062 -5.101562 35.390625 -7.367188 35.390625 -9.859375 L 35.390625 -104.5 L 61.8125 -104.5 Z M 32.09375 -104.5 C 28.3125 -104.101562 24.898438 -103.109375 21.859375 -101.515625 C 18.828125 -99.929688 16.117188 -97.867188 13.734375 -95.328125 C 11.347656 -92.785156 9.332031 -89.894531 7.6875 -86.65625 C 6.039062 -83.425781 4.722656 -79.972656 3.734375 -76.296875 L 3.734375 -104.5 Z M 93.453125 -104.5 L 93.453125 -76.296875 C 92.554688 -79.972656 91.265625 -83.425781 89.578125 -86.65625 C 87.890625 -89.894531 85.875 -92.785156 83.53125 -95.328125 C 81.1875 -97.867188 78.472656 -99.929688 75.390625 -101.515625 C 72.304688 -103.109375 68.925781 -104.101562 65.25 -104.5 Z M 93.453125 -104.5 "/></g></g></g><g fill="#004aad" fill-opacity="1"><g transform="translate(102.617962, 223.893132)"><g><path d="M 19.859375 -41.953125 C 16.671875 -41.953125 13.957031 -43.070312 11.71875 -45.3125 C 9.476562 -47.550781 8.359375 -50.265625 8.359375 -53.453125 C 8.359375 -55.941406 9.101562 -58.378906 10.59375 -60.765625 C 12.09375 -63.148438 14.035156 -65.285156 16.421875 -67.171875 C 18.804688 -69.066406 21.492188 -70.660156 24.484375 -71.953125 C 27.472656 -73.253906 30.457031 -74.050781 33.4375 -74.34375 C 30.75 -73.945312 28.679688 -73.148438 27.234375 -71.953125 C 25.796875 -70.765625 25.078125 -69.375 25.078125 -67.78125 C 25.078125 -66.6875 25.375 -65.613281 25.96875 -64.5625 C 26.570312 -63.519531 27.320312 -62.453125 28.21875 -61.359375 C 30.40625 -59.367188 31.5 -56.734375 31.5 -53.453125 C 31.5 -50.265625 30.351562 -47.550781 28.0625 -45.3125 C 25.78125 -43.070312 23.046875 -41.953125 19.859375 -41.953125 Z M 64.9375 -11.203125 C 64.9375 -9.410156 65.535156 -7.664062 66.734375 -5.96875 C 67.929688 -4.28125 69.375 -3.285156 71.0625 -2.984375 L 45.390625 0.75 L 45.09375 0.75 C 44.289062 0.75 43.640625 0.5 43.140625 0 C 42.648438 -0.5 42.40625 -1.144531 42.40625 -1.9375 L 42.40625 -45.09375 C 41.207031 -44.488281 39.738281 -43.738281 38 -42.84375 C 36.257812 -41.945312 34.566406 -40.753906 32.921875 -39.265625 C 31.273438 -37.773438 29.828125 -35.882812 28.578125 -33.59375 C 27.335938 -31.300781 26.570312 -28.414062 26.28125 -24.9375 C 25.976562 -21.351562 26.25 -18.191406 27.09375 -15.453125 C 27.9375 -12.710938 29.15625 -10.5 30.75 -8.8125 C 32.34375 -7.113281 34.234375 -5.914062 36.421875 -5.21875 C 38.617188 -4.53125 40.515625 -4.582031 42.109375 -5.375 C 40.316406 -4.082031 37.925781 -2.738281 34.9375 -1.34375 C 31.945312 0.0507812 28.410156 0.75 24.328125 0.75 C 19.648438 0.75 15.421875 -0.492188 11.640625 -2.984375 C 7.859375 -5.472656 5.421875 -8.804688 4.328125 -12.984375 C 3.128906 -17.265625 3.550781 -21.421875 5.59375 -25.453125 C 7.632812 -29.484375 10.742188 -32.796875 14.921875 -35.390625 C 17.117188 -36.679688 19.785156 -37.945312 22.921875 -39.1875 C 26.054688 -40.4375 29.390625 -41.65625 32.921875 -42.84375 C 36.453125 -44.039062 39.957031 -45.234375 43.4375 -46.421875 C 46.925781 -47.617188 50.085938 -48.914062 52.921875 -50.3125 C 55.765625 -51.707031 58.101562 -53.203125 59.9375 -54.796875 C 61.78125 -56.390625 62.753906 -58.179688 62.859375 -60.171875 C 62.953125 -61.359375 62.722656 -62.625 62.171875 -63.96875 C 61.628906 -65.3125 60.863281 -66.53125 59.875 -67.625 C 62.5625 -65.039062 64.203125 -62.054688 64.796875 -58.671875 C 64.890625 -58.273438 64.9375 -57.875 64.9375 -57.46875 C 64.9375 -57.070312 64.9375 -56.675781 64.9375 -56.28125 Z M 64.9375 -11.203125 "/></g></g></g><g fill="#004aad" fill-opacity="1"><g transform="translate(166.96564, 223.893132)"><g><path d="M 19.859375 -5.21875 C 20.054688 -3.832031 20.925781 -2.566406 22.46875 -1.421875 C 24.007812 -0.273438 26.175781 0.394531 28.96875 0.59375 C 25.476562 0.394531 22.210938 -0.25 19.171875 -1.34375 C 16.140625 -2.4375 13.476562 -3.828125 11.1875 -5.515625 C 8.90625 -7.210938 7.09375 -9.179688 5.75 -11.421875 C 4.40625 -13.660156 3.734375 -16.070312 3.734375 -18.65625 C 3.734375 -21.84375 4.851562 -24.554688 7.09375 -26.796875 C 9.332031 -29.035156 12.046875 -30.15625 15.234375 -30.15625 C 16.816406 -30.15625 18.332031 -29.851562 19.78125 -29.25 C 21.226562 -28.65625 22.472656 -27.835938 23.515625 -26.796875 C 24.554688 -25.753906 25.375 -24.535156 25.96875 -23.140625 C 26.570312 -21.742188 26.875 -20.25 26.875 -18.65625 C 26.875 -16.863281 26.5 -15.195312 25.75 -13.65625 C 25.007812 -12.113281 23.988281 -10.796875 22.6875 -9.703125 C 21.894531 -9.003906 21.195312 -8.28125 20.59375 -7.53125 C 20 -6.789062 19.753906 -6.019531 19.859375 -5.21875 Z M 60.015625 -20.15625 C 60.210938 -17.164062 59.585938 -14.398438 58.140625 -11.859375 C 56.703125 -9.328125 54.664062 -7.140625 52.03125 -5.296875 C 49.394531 -3.453125 46.332031 -1.984375 42.84375 -0.890625 C 39.363281 0.203125 35.679688 0.75 31.796875 0.75 C 34.484375 0.75 36.769531 -0.34375 38.65625 -2.53125 C 40.550781 -4.726562 41.5 -7.171875 41.5 -9.859375 C 41.5 -12.347656 40.578125 -14.757812 38.734375 -17.09375 C 36.898438 -19.4375 34.5625 -21.773438 31.71875 -24.109375 C 28.882812 -26.453125 25.847656 -28.863281 22.609375 -31.34375 C 19.378906 -33.832031 16.34375 -36.421875 13.5 -39.109375 C 10.664062 -41.796875 8.328125 -44.632812 6.484375 -47.625 C 4.648438 -50.613281 3.734375 -53.847656 3.734375 -57.328125 C 3.734375 -60.316406 4.53125 -62.90625 6.125 -65.09375 C 7.71875 -67.28125 9.734375 -69.09375 12.171875 -70.53125 C 14.609375 -71.976562 17.316406 -73.050781 20.296875 -73.75 C 23.285156 -74.445312 26.175781 -74.796875 28.96875 -74.796875 C 29.863281 -74.796875 30.679688 -74.796875 31.421875 -74.796875 C 32.171875 -74.796875 32.941406 -74.695312 33.734375 -74.5 C 31.046875 -74.894531 28.734375 -74.269531 26.796875 -72.625 C 24.859375 -70.988281 23.890625 -68.53125 23.890625 -65.25 C 23.890625 -62.5625 24.734375 -60.070312 26.421875 -57.78125 C 28.117188 -55.488281 30.257812 -53.25 32.84375 -51.0625 C 35.4375 -48.875 38.25 -46.660156 41.28125 -44.421875 C 44.3125 -42.179688 47.171875 -39.835938 49.859375 -37.390625 C 52.546875 -34.953125 54.832031 -32.316406 56.71875 -29.484375 C 58.613281 -26.648438 59.710938 -23.539062 60.015625 -20.15625 Z M 55.09375 -48.515625 C 54.695312 -50.710938 54.070312 -53.175781 53.21875 -55.90625 C 52.375 -58.644531 51.179688 -61.257812 49.640625 -63.75 C 48.097656 -66.238281 46.15625 -68.453125 43.8125 -70.390625 C 41.476562 -72.335938 38.617188 -73.65625 35.234375 -74.34375 C 36.828125 -74.050781 38.296875 -73.703125 39.640625 -73.296875 C 40.984375 -72.898438 42.25 -72.503906 43.4375 -72.109375 C 44.632812 -71.710938 45.804688 -71.414062 46.953125 -71.21875 C 48.097656 -71.019531 49.316406 -70.96875 50.609375 -71.0625 C 51.410156 -71.164062 52.28125 -71.363281 53.21875 -71.65625 C 54.164062 -71.957031 54.789062 -72.304688 55.09375 -72.703125 Z M 55.09375 -48.515625 "/></g></g></g><g fill="#004aad" fill-opacity="1"><g transform="translate(220.414461, 223.893132)"><g><path d="M 58.53125 -62.703125 C 58.53125 -65.296875 57.707031 -67.660156 56.0625 -69.796875 C 54.414062 -71.929688 52.347656 -73.101562 49.859375 -73.3125 L 81.515625 -73.3125 C 79.617188 -73.007812 77.628906 -72.359375 75.546875 -71.359375 C 73.753906 -70.566406 71.640625 -69.398438 69.203125 -67.859375 C 66.765625 -66.316406 64.25 -64.25 61.65625 -61.65625 L 55.53125 -55.6875 C 57.53125 -57.476562 58.53125 -59.816406 58.53125 -62.703125 Z M 74.34375 -4.1875 C 75.34375 -3.082031 76.4375 -2.109375 77.625 -1.265625 C 78.820312 -0.421875 80.117188 0 81.515625 0 L 54.34375 0 C 53.144531 0 52.046875 -0.421875 51.046875 -1.265625 C 50.054688 -2.109375 49.015625 -3.675781 47.921875 -5.96875 C 46.628906 -8.65625 45.3125 -11.890625 43.96875 -15.671875 C 42.625 -19.453125 41.28125 -23.160156 39.9375 -26.796875 C 38.59375 -30.429688 37.273438 -33.71875 35.984375 -36.65625 C 34.691406 -39.59375 33.445312 -41.554688 32.25 -42.546875 L 32.25 -8.21875 C 32.25 -6.425781 32.84375 -4.679688 34.03125 -2.984375 C 35.226562 -1.296875 36.675781 -0.300781 38.375 0 L 3.734375 0 C 5.421875 -0.300781 6.863281 -1.296875 8.0625 -2.984375 C 9.257812 -4.679688 9.859375 -6.425781 9.859375 -8.21875 L 9.859375 -92.5625 C 9.859375 -94.351562 9.257812 -96.09375 8.0625 -97.78125 C 6.863281 -99.476562 5.421875 -100.476562 3.734375 -100.78125 L 29.265625 -104.5 L 29.703125 -104.5 C 30.503906 -104.5 31.128906 -104.25 31.578125 -103.75 C 32.023438 -103.257812 32.25 -102.617188 32.25 -101.828125 L 32.25 -42.546875 C 33.539062 -42.546875 35.003906 -42.816406 36.640625 -43.359375 C 38.285156 -43.910156 39.976562 -44.632812 41.71875 -45.53125 C 43.46875 -46.425781 45.160156 -47.421875 46.796875 -48.515625 C 48.441406 -49.609375 49.960938 -50.753906 51.359375 -51.953125 C 52.453125 -51.160156 53.570312 -49.644531 54.71875 -47.40625 C 55.863281 -45.164062 57.03125 -42.550781 58.21875 -39.5625 C 59.414062 -36.570312 60.632812 -33.359375 61.875 -29.921875 C 63.125 -26.492188 64.394531 -23.160156 65.6875 -19.921875 C 66.976562 -16.691406 68.347656 -13.679688 69.796875 -10.890625 C 71.242188 -8.109375 72.757812 -5.875 74.34375 -4.1875 Z M 74.34375 -4.1875 "/></g></g></g><g fill="#004aad" fill-opacity="1"><g transform="translate(295.213105, 223.893132)"><g><path d="M 19.859375 -5.21875 C 20.054688 -3.832031 20.925781 -2.566406 22.46875 -1.421875 C 24.007812 -0.273438 26.175781 0.394531 28.96875 0.59375 C 25.476562 0.394531 22.210938 -0.25 19.171875 -1.34375 C 16.140625 -2.4375 13.476562 -3.828125 11.1875 -5.515625 C 8.90625 -7.210938 7.09375 -9.179688 5.75 -11.421875 C 4.40625 -13.660156 3.734375 -16.070312 3.734375 -18.65625 C 3.734375 -21.84375 4.851562 -24.554688 7.09375 -26.796875 C 9.332031 -29.035156 12.046875 -30.15625 15.234375 -30.15625 C 16.816406 -30.15625 18.332031 -29.851562 19.78125 -29.25 C 21.226562 -28.65625 22.472656 -27.835938 23.515625 -26.796875 C 24.554688 -25.753906 25.375 -24.535156 25.96875 -23.140625 C 26.570312 -21.742188 26.875 -20.25 26.875 -18.65625 C 26.875 -16.863281 26.5 -15.195312 25.75 -13.65625 C 25.007812 -12.113281 23.988281 -10.796875 22.6875 -9.703125 C 21.894531 -9.003906 21.195312 -8.28125 20.59375 -7.53125 C 20 -6.789062 19.753906 -6.019531 19.859375 -5.21875 Z M 60.015625 -20.15625 C 60.210938 -17.164062 59.585938 -14.398438 58.140625 -11.859375 C 56.703125 -9.328125 54.664062 -7.140625 52.03125 -5.296875 C 49.394531 -3.453125 46.332031 -1.984375 42.84375 -0.890625 C 39.363281 0.203125 35.679688 0.75 31.796875 0.75 C 34.484375 0.75 36.769531 -0.34375 38.65625 -2.53125 C 40.550781 -4.726562 41.5 -7.171875 41.5 -9.859375 C 41.5 -12.347656 40.578125 -14.757812 38.734375 -17.09375 C 36.898438 -19.4375 34.5625 -21.773438 31.71875 -24.109375 C 28.882812 -26.453125 25.847656 -28.863281 22.609375 -31.34375 C 19.378906 -33.832031 16.34375 -36.421875 13.5 -39.109375 C 10.664062 -41.796875 8.328125 -44.632812 6.484375 -47.625 C 4.648438 -50.613281 3.734375 -53.847656 3.734375 -57.328125 C 3.734375 -60.316406 4.53125 -62.90625 6.125 -65.09375 C 7.71875 -67.28125 9.734375 -69.09375 12.171875 -70.53125 C 14.609375 -71.976562 17.316406 -73.050781 20.296875 -73.75 C 23.285156 -74.445312 26.175781 -74.796875 28.96875 -74.796875 C 29.863281 -74.796875 30.679688 -74.796875 31.421875 -74.796875 C 32.171875 -74.796875 32.941406 -74.695312 33.734375 -74.5 C 31.046875 -74.894531 28.734375 -74.269531 26.796875 -72.625 C 24.859375 -70.988281 23.890625 -68.53125 23.890625 -65.25 C 23.890625 -62.5625 24.734375 -60.070312 26.421875 -57.78125 C 28.117188 -55.488281 30.257812 -53.25 32.84375 -51.0625 C 35.4375 -48.875 38.25 -46.660156 41.28125 -44.421875 C 44.3125 -42.179688 47.171875 -39.835938 49.859375 -37.390625 C 52.546875 -34.953125 54.832031 -32.316406 56.71875 -29.484375 C 58.613281 -26.648438 59.710938 -23.539062 60.015625 -20.15625 Z M 55.09375 -48.515625 C 54.695312 -50.710938 54.070312 -53.175781 53.21875 -55.90625 C 52.375 -58.644531 51.179688 -61.257812 49.640625 -63.75 C 48.097656 -66.238281 46.15625 -68.453125 43.8125 -70.390625 C 41.476562 -72.335938 38.617188 -73.65625 35.234375 -74.34375 C 36.828125 -74.050781 38.296875 -73.703125 39.640625 -73.296875 C 40.984375 -72.898438 42.25 -72.503906 43.4375 -72.109375 C 44.632812 -71.710938 45.804688 -71.414062 46.953125 -71.21875 C 48.097656 -71.019531 49.316406 -70.96875 50.609375 -71.0625 C 51.410156 -71.164062 52.28125 -71.363281 53.21875 -71.65625 C 54.164062 -71.957031 54.789062 -72.304688 55.09375 -72.703125 Z M 55.09375 -48.515625 "/></g></g></g><g fill="#004aad" fill-opacity="1"><g transform="translate(265.77152, 238.516574)"><g><path d="M 2.875 -6.6875 L 2.46875 -4.203125 L 5.59375 -4.21875 L 5.484375 -3.46875 L 2.328125 -3.46875 L 1.734375 0 L 0.8125 0 L 2.078125 -7.53125 L 6.578125 -7.53125 L 6.4375 -6.6875 Z M 2.875 -6.6875 "/></g></g></g><g fill="#004aad" fill-opacity="1"><g transform="translate(273.608759, 238.516574)"><g><path d="M 5.390625 -0.84375 L 5.25 0 L 0.8125 0 L 2.078125 -7.53125 L 3.015625 -7.53125 L 1.875 -0.84375 Z M 5.390625 -0.84375 "/></g></g></g><g fill="#004aad" fill-opacity="1"><g transform="translate(281.585748, 238.516574)"><g><path d="M 3.9375 0.078125 C 3.019531 0.078125 2.320312 -0.1875 1.84375 -0.71875 C 1.363281 -1.25 1.125 -1.960938 1.125 -2.859375 C 1.125 -3.753906 1.300781 -4.566406 1.65625 -5.296875 C 2.019531 -6.035156 2.519531 -6.617188 3.15625 -7.046875 C 3.789062 -7.472656 4.488281 -7.6875 5.25 -7.6875 C 6.15625 -7.6875 6.847656 -7.414062 7.328125 -6.875 C 7.816406 -6.34375 8.0625 -5.628906 8.0625 -4.734375 C 8.0625 -3.835938 7.878906 -3.019531 7.515625 -2.28125 C 7.160156 -1.550781 6.664062 -0.972656 6.03125 -0.546875 C 5.394531 -0.128906 4.695312 0.078125 3.9375 0.078125 Z M 4.078125 -0.78125 C 4.628906 -0.78125 5.132812 -0.953125 5.59375 -1.296875 C 6.050781 -1.640625 6.410156 -2.097656 6.671875 -2.671875 C 6.941406 -3.253906 7.078125 -3.894531 7.078125 -4.59375 C 7.078125 -5.289062 6.90625 -5.835938 6.5625 -6.234375 C 6.21875 -6.640625 5.734375 -6.84375 5.109375 -6.84375 C 4.566406 -6.84375 4.0625 -6.671875 3.59375 -6.328125 C 3.132812 -5.984375 2.769531 -5.515625 2.5 -4.921875 C 2.238281 -4.335938 2.109375 -3.703125 2.109375 -3.015625 C 2.109375 -2.328125 2.273438 -1.78125 2.609375 -1.375 C 2.953125 -0.976562 3.441406 -0.78125 4.078125 -0.78125 Z M 4.078125 -0.78125 "/></g></g></g><g fill="#004aad" fill-opacity="1"><g transform="translate(291.777391, 238.516574)"><g><path d="M 1.4375 -7.53125 L 2.359375 -7.53125 L 2.9375 -1.109375 L 3 -1.109375 L 6.1875 -7.53125 L 7.046875 -7.53125 L 8.015625 -1.109375 L 8.078125 -1.109375 L 10.875 -7.53125 L 11.796875 -7.53125 L 8.5 0 L 7.265625 0 L 6.390625 -5.90625 L 6.328125 -5.90625 L 3.390625 0 L 2.171875 0 Z M 1.4375 -7.53125 "/></g></g></g><g clip-path="url(#96ab53e878)"><path fill="#5271ff" d="M 336.597656 219.21875 C 324.816406 221.386719 323.054688 223.144531 320.886719 234.925781 C 318.71875 223.144531 316.960938 221.386719 305.179688 219.21875 C 316.960938 217.046875 318.71875 215.289062 320.886719 203.507812 C 323.054688 215.289062 324.816406 217.046875 336.597656 219.21875 Z M 336.597656 219.21875 " fill-opacity="1" fill-rule="nonzero"/></g></svg>