<svg xmlns="http://www.w3.org/2000/svg" xmlns:xlink="http://www.w3.org/1999/xlink" width="500" zoomAndPan="magnify" viewBox="0 0 375 374.999991" height="500" preserveAspectRatio="xMidYMid meet" version="1.0"><defs><g/><clipPath id="6fd3b86225"><path d="M 210.453125 170.4375 L 246.453125 170.4375 L 246.453125 206.4375 L 210.453125 206.4375 Z M 210.453125 170.4375 " clip-rule="nonzero"/></clipPath></defs><g fill="#5271ff" fill-opacity="1"><g transform="translate(86.13995, 183.751622)"><g><path d="M 90.5625 -14.4375 C 90.5625 -10.789062 91.835938 -7.472656 94.390625 -4.484375 C 96.941406 -1.492188 100.039062 0 103.6875 0 L 38.71875 0 C 42.507812 0 45.644531 -1.492188 48.125 -4.484375 C 50.601562 -7.472656 51.84375 -10.789062 51.84375 -14.4375 L 51.84375 -153.125 L 90.5625 -153.125 Z M 47.03125 -153.125 C 41.488281 -152.539062 36.492188 -151.082031 32.046875 -148.75 C 27.597656 -146.414062 23.625 -143.390625 20.125 -139.671875 C 16.625 -135.953125 13.671875 -131.722656 11.265625 -126.984375 C 8.859375 -122.242188 6.925781 -117.175781 5.46875 -111.78125 L 5.46875 -153.125 Z M 136.9375 -153.125 L 136.9375 -111.78125 C 135.625 -117.175781 133.726562 -122.242188 131.25 -126.984375 C 128.769531 -131.722656 125.816406 -135.953125 122.390625 -139.671875 C 118.960938 -143.390625 114.988281 -146.414062 110.46875 -148.75 C 105.945312 -151.082031 100.988281 -152.539062 95.59375 -153.125 Z M 136.9375 -153.125 "/></g></g></g><g fill="#5271ff" fill-opacity="1"><g transform="translate(158.682984, 297.889979)"><g><path d="M 112.4375 -153.125 L 112.4375 -111.78125 C 110.976562 -117.46875 108.535156 -122.828125 105.109375 -127.859375 C 101.679688 -132.890625 97.632812 -137.265625 92.96875 -140.984375 C 88.300781 -144.703125 83.085938 -147.65625 77.328125 -149.84375 C 71.566406 -152.03125 65.550781 -153.125 59.28125 -153.125 Z M 57.09375 -76.5625 C 61.03125 -76.5625 64.894531 -77.253906 68.6875 -78.640625 C 72.476562 -80.023438 75.90625 -81.882812 78.96875 -84.21875 C 82.03125 -86.550781 84.65625 -89.320312 86.84375 -92.53125 C 89.03125 -95.738281 90.632812 -99.164062 91.65625 -102.8125 L 91.65625 -50.3125 C 90.632812 -53.957031 89.03125 -57.382812 86.84375 -60.59375 C 84.65625 -63.800781 82.03125 -66.570312 78.96875 -68.90625 C 75.90625 -71.238281 72.476562 -73.097656 68.6875 -74.484375 C 64.894531 -75.867188 61.03125 -76.5625 57.09375 -76.5625 L 57.09375 -14.4375 C 57.09375 -10.789062 58.367188 -7.472656 60.921875 -4.484375 C 63.472656 -1.492188 66.644531 0 70.4375 0 L 5.46875 0 C 9.113281 0 12.210938 -1.492188 14.765625 -4.484375 C 17.316406 -7.472656 18.59375 -10.789062 18.59375 -14.4375 L 18.59375 -138.6875 C 18.59375 -142.332031 17.316406 -145.648438 14.765625 -148.640625 C 12.210938 -151.628906 9.113281 -153.125 5.46875 -153.125 L 57.09375 -153.125 Z M 57.09375 -76.5625 "/></g></g></g><g clip-path="url(#6fd3b86225)"><path fill="#004aad" d="M 246.214844 188.320312 C 232.804688 190.789062 230.800781 192.789062 228.332031 206.199219 C 225.863281 192.789062 223.863281 190.789062 210.453125 188.320312 C 223.863281 185.851562 225.863281 183.847656 228.332031 170.4375 C 230.800781 183.847656 232.804688 185.851562 246.214844 188.320312 Z M 246.214844 188.320312 " fill-opacity="1" fill-rule="nonzero"/></g></svg>